<?xml version="1.0" encoding="UTF-8" standalone="no"?>
<svg
   xmlns:dc="http://purl.org/dc/elements/1.1/"
   xmlns:cc="http://creativecommons.org/ns#"
   xmlns:rdf="http://www.w3.org/1999/02/22-rdf-syntax-ns#"
   xmlns:svg="http://www.w3.org/2000/svg"
   xmlns="http://www.w3.org/2000/svg"
   xmlns:sodipodi="http://sodipodi.sourceforge.net/DTD/sodipodi-0.dtd"
   xmlns:inkscape="http://www.inkscape.org/namespaces/inkscape"
   width="210mm"
   height="297mm"
   viewBox="0 0 210 297"
   version="1.1"
   id="svg8"
   inkscape:version="1.0 (4035a4f, 2020-05-01)"
   sodipodi:docname="icon.svg">
  <defs
     id="defs2" />
  <sodipodi:namedview
     id="base"
     pagecolor="#ffffff"
     bordercolor="#666666"
     borderopacity="1.0"
     inkscape:pageopacity="0.0"
     inkscape:pageshadow="2"
     inkscape:zoom="0.39314068"
     inkscape:cx="144.84192"
     inkscape:cy="1094.5001"
     inkscape:document-units="mm"
     inkscape:current-layer="layer1"
     inkscape:document-rotation="0"
     showgrid="false"
     inkscape:window-width="1644"
     inkscape:window-height="1174"
     inkscape:window-x="546"
     inkscape:window-y="183"
     inkscape:window-maximized="0"
     showguides="true"
     inkscape:snap-others="false"
     inkscape:object-nodes="false"
     inkscape:snap-nodes="true"
     inkscape:object-paths="false"
     inkscape:snap-bbox="false"
     inkscape:snap-to-guides="true"
     inkscape:snap-grids="false"
     inkscape:snap-center="true"
     inkscape:snap-object-midpoints="false"
     inkscape:snap-intersection-paths="false"
     inkscape:snap-smooth-nodes="true"
     inkscape:snap-global="true"
     objecttolerance="20"
     gridtolerance="19.8"
     inkscape:bbox-paths="true"
     inkscape:snap-page="true" />
  <metadata
     id="metadata5">
    <rdf:RDF>
      <cc:Work
         rdf:about="">
        <dc:format>image/svg+xml</dc:format>
        <dc:type
           rdf:resource="http://purl.org/dc/dcmitype/StillImage" />
        <dc:title />
      </cc:Work>
    </rdf:RDF>
  </metadata>
  <g
     inkscape:label="Layer 1"
     inkscape:groupmode="layer"
     id="layer1">
    <g
       inkscape:export-ydpi="125.03"
       inkscape:export-xdpi="125.03"
       transform="translate(-104.26247,-120.24475)"
       id="g943">
      <rect
         style="fill:#f6f6f3;fill-opacity:1;stroke-width:4.06667"
         id="rect912"
         width="104.01757"
         height="104.01757"
         x="104.26247"
         y="120.24475" />
      <g
         id="g910">
        <path
           sodipodi:nodetypes="csssc"
           d="m 143.2566,159.30011 c 6.3212,3.64954 7.46242,6.5094 6.19592,8.70307 -1.26652,2.19365 -4.46119,2.89046 -10.78239,-0.75909 -6.32119,-3.64955 -10.4188,-8.3864 -9.15229,-10.58006 1.26652,-2.19369 7.41757,-1.01346 13.73876,2.63608"
           style="fill:#c3f5f5;fill-opacity:1;stroke:none;stroke-width:1.16289;stroke-miterlimit:4;stroke-dasharray:none;stroke-opacity:1"
           id="path884" />
        <path
           id="path882"
           style="fill:#a1e8ea;fill-opacity:1;stroke:none;stroke-width:1.16289;stroke-miterlimit:4;stroke-dasharray:none;stroke-opacity:1"
           d="m 138.51946,177.07558 c 6.3212,-3.64955 9.36852,-3.20795 10.63504,-1.01429 1.2665,2.19367 0.27262,5.30873 -6.04858,8.95828 -6.3212,3.64954 -12.47224,4.82975 -13.73875,2.63608 -1.26653,-2.19368 2.8311,-6.93053 9.15229,-10.58007"
           sodipodi:nodetypes="csssc" />
        <path
           sodipodi:nodetypes="csssc"
           d="m 151.60913,190.06597 c 0,-7.2991 1.90609,-9.71736 4.43912,-9.71736 2.53302,1e-5 4.7338,2.41826 4.7338,9.71736 0,7.29909 -2.05343,13.21615 -4.58646,13.21614 -2.53304,1e-5 -4.58646,-5.91706 -4.58646,-13.21614"
           style="fill:#7fe1e6;fill-opacity:1;stroke:none;stroke-width:1.16289;stroke-miterlimit:4;stroke-dasharray:none;stroke-opacity:1"
           id="path880" />
        <path
           id="path878"
           style="fill:#2dccd6;fill-opacity:1;stroke:none;stroke-width:1.16289;stroke-miterlimit:4;stroke-dasharray:none;stroke-opacity:1"
           d="m 169.30754,185.28055 c -6.32121,-3.64955 -7.46244,-6.5094 -6.19593,-8.70307 1.26652,-2.19365 4.46118,-2.89046 10.78239,0.75909 6.32119,3.64954 10.4188,8.3864 9.15228,10.58006 -1.26651,2.19368 -7.41755,1.01346 -13.73874,-2.63608"
           sodipodi:nodetypes="csssc" />
        <path
           sodipodi:nodetypes="csssc"
           d="m 174.04467,167.50504 c -6.3212,3.64955 -9.36852,3.20796 -10.63504,1.0143 -1.2665,-2.19367 -0.27262,-5.30873 6.04858,-8.95828 6.32119,-3.64954 12.47224,-4.82975 13.73875,-2.63608 1.26652,2.19367 -2.8311,6.93052 -9.15229,10.58006"
           style="fill:#1f9aa2;fill-opacity:1;stroke:none;stroke-width:1.16289;stroke-miterlimit:4;stroke-dasharray:none;stroke-opacity:1"
           id="path876" />
        <path
           id="path2377"
           style="fill:#1c858d;fill-opacity:1;stroke:none;stroke-width:1.16289;stroke-miterlimit:4;stroke-dasharray:none;stroke-opacity:1"
           d="m 160.95489,154.51464 c 0,7.29909 -1.90609,9.71735 -4.43911,9.71736 -2.53303,-1e-5 -4.73381,-2.41827 -4.73381,-9.71736 0,-7.29908 2.05343,-13.21615 4.58646,-13.21615 2.53303,0 4.58646,5.91707 4.58646,13.21615"
           sodipodi:nodetypes="csssc" />
        <path
           style="fill:#666666;fill-opacity:1;stroke:none;stroke-width:0.553299;stroke-miterlimit:4;stroke-dasharray:none;stroke-opacity:1"
           d="m 154.0851,218.0497 c -0.0468,-0.26167 -0.37064,-2.37438 -0.71966,-4.69492 -0.34901,-2.32053 -0.6925,-4.27154 -0.76331,-4.33557 -0.0708,-0.064 -0.88633,-0.22948 -1.81226,-0.36764 -2.04701,-0.30544 -4.99917,-1.04953 -6.89501,-1.73788 -0.7729,-0.28063 -1.47105,-0.46727 -1.55146,-0.41475 -0.0804,0.0525 -1.38316,1.77534 -2.895,3.82851 -1.51184,2.05317 -2.76665,3.75362 -2.78848,3.77877 -0.0721,0.0831 -2.7524,-1.31339 -4.24243,-2.2103 -3.13317,-1.88598 -5.83364,-3.98819 -8.68839,-6.76361 l -1.66152,-1.61533 2.71285,-3.68078 c 1.49206,-2.02443 2.79255,-3.80842 2.88997,-3.96442 0.15406,-0.2467 0.0813,-0.40579 -0.55853,-1.2218 -1.25121,-1.59564 -2.79141,-4.07113 -3.79441,-6.09855 -0.65788,-1.3298 -1.03519,-1.93778 -1.19995,-1.93355 -0.13219,0.003 -2.29208,0.31947 -4.79976,0.7024 l -4.55941,0.69623 -0.59532,-1.91015 c -0.88813,-2.84963 -1.27043,-4.52302 -1.69714,-7.42873 -0.29992,-2.04221 -0.53436,-6.19578 -0.42365,-7.5055 l 0.0872,-1.03139 4.69884,-0.70608 c 2.58436,-0.38835 4.74027,-0.7317 4.79091,-0.763 0.0506,-0.0313 0.13173,-0.48152 0.18019,-1.0005 0.15502,-1.65998 0.83846,-4.63627 1.59178,-6.9319 0.40246,-1.22646 0.7094,-2.29081 0.68209,-2.36525 -0.0273,-0.0744 -1.72953,-1.36952 -3.7827,-2.87798 -2.05316,-1.50847 -3.76564,-2.77144 -3.80551,-2.80661 -0.0399,-0.0352 0.35194,-0.89142 0.87068,-1.90276 1.00941,-1.96801 2.92418,-4.96381 4.35441,-6.81284 1.22832,-1.58798 3.763,-4.3904 4.67796,-5.17207 l 0.76722,-0.65546 3.7043,2.73601 c 2.03737,1.5048 3.81777,2.76574 3.95644,2.80209 0.15097,0.0396 0.68358,-0.25864 1.32741,-0.74319 1.81857,-1.3687 3.74944,-2.55988 5.77838,-3.56475 1.06776,-0.52883 1.96989,-1.00763 2.00472,-1.064 0.0547,-0.0885 -1.09697,-8.03226 -1.3207,-9.10982 -0.0744,-0.35814 -0.0193,-0.41182 0.69708,-0.67986 2.16671,-0.81067 6.21533,-1.7384 9.41376,-2.15715 1.61003,-0.21079 7.68122,-0.48459 7.689,-0.34677 0.0433,0.76609 1.46244,9.41557 1.56104,9.51417 0.0773,0.0773 0.76151,0.23383 1.52054,0.34793 2.31818,0.34849 4.20733,0.80242 6.47232,1.5552 1.1904,0.39563 2.18984,0.71934 2.22097,0.71934 0.0311,0 1.31864,-1.71281 2.86113,-3.80623 1.69183,-2.29612 2.89999,-3.80623 3.04514,-3.80623 0.37079,0 3.85176,1.95251 5.81166,3.25981 2.39372,1.59666 4.83074,3.57809 6.8822,5.59558 l 1.71517,1.68677 -0.35987,0.47486 c -1.22751,1.61974 -5.38283,7.2995 -5.38283,7.3576 0,0.0386 0.43213,0.64309 0.96029,1.34334 1.31191,1.73938 2.43316,3.57308 3.54107,5.79109 0.80456,1.61071 0.9803,1.86652 1.28236,1.86652 0.19251,0 2.29644,-0.29645 4.67539,-0.65877 2.37895,-0.36232 4.38822,-0.65877 4.46506,-0.65877 0.15289,0 0.98181,2.46326 1.45326,4.3186 0.44154,1.73767 0.99558,4.89772 1.19311,6.80513 0.17801,1.71888 0.27825,6.50302 0.13918,6.6424 -0.0424,0.0425 -2.15047,0.38729 -4.6846,0.76622 -2.53412,0.37894 -4.68984,0.75307 -4.79049,0.8314 -0.10064,0.0783 -0.18299,0.32403 -0.18299,0.54598 0,1.28888 -0.86944,5.11079 -1.76862,7.77457 -0.31552,0.9347 -0.57367,1.76801 -0.57367,1.8518 0,0.0838 1.68662,1.38991 3.74805,2.9025 2.06142,1.51258 3.78168,2.8378 3.82279,2.94494 0.10298,0.26835 -1.78022,3.68299 -3.25356,5.89941 -1.62975,2.45171 -3.43305,4.66741 -5.5592,6.83055 l -1.75915,1.78975 -3.80622,-2.83754 c -2.09343,-1.56064 -3.89,-2.84144 -3.99237,-2.84621 -0.10237,-0.005 -0.59645,0.31052 -1.09795,0.70064 -1.90678,1.48334 -4.46138,3.02835 -6.88932,4.16665 -1.08522,0.50879 -1.14221,0.55913 -1.06605,0.94164 0.0443,0.22226 0.34816,2.21573 0.67534,4.42993 0.32719,2.2142 0.62765,4.17662 0.6677,4.36091 0.0892,0.4107 -0.15378,0.52419 -2.72239,1.27142 -4.08076,1.18714 -8.56604,1.83373 -12.72015,1.83373 h -2.33983 z m 5.75033,-12.55812 c 10.36917,-1.10352 19.66592,-7.02568 25.03908,-15.95021 4.12657,-6.85404 5.66096,-14.9467 4.33005,-22.83755 -2.06718,-12.25628 -10.85356,-22.41184 -22.6624,-26.19388 -3.57201,-1.14402 -6.21596,-1.54104 -10.26254,-1.54104 -4.22859,0 -6.87733,0.42122 -10.75763,1.71073 -2.12062,0.70473 -5.82199,2.50544 -7.61475,3.70457 -8.11031,5.42476 -13.22531,13.56286 -14.71753,23.41596 -0.33258,2.19603 -0.33481,6.58705 -0.004,8.93 0.98886,7.01486 3.94362,13.24458 8.72874,18.4034 5.20869,5.61547 12.87686,9.47159 20.55948,10.33881 1.65957,0.18733 5.68359,0.19783 7.36204,0.0192 z"
           id="path2163-4-4" />
      </g>
    </g>
  </g>
</svg>
